<?xml version="1.0" encoding="UTF-8"?>
<!DOCTYPE svg PUBLIC "-//W3C//DTD SVG 1.1//EN" "http://www.w3.org/Graphics/SVG/1.1/DTD/svg11.dtd">
<!-- Creator: CorelDRAW X8 -->
<svg xmlns="http://www.w3.org/2000/svg" xml:space="preserve" width="136.313mm" height="38.1846mm" version="1.1" style="shape-rendering:geometricPrecision; text-rendering:geometricPrecision; image-rendering:optimizeQuality; fill-rule:evenodd; clip-rule:evenodd"
viewBox="0 0 13631 3818"
 xmlns:xlink="http://www.w3.org/1999/xlink">
 <defs>
  <style type="text/css">
   <![CDATA[
    .str0 {stroke:#B9B9B9;stroke-width:169.33}
    .fil4 {fill:none}
    .fil0 {fill:#B9B9B9}
    .fil3 {fill:#B9B9B9}
    .fil2 {fill:#111111;fill-rule:nonzero}
    .fil1 {fill:#B9B9B9;fill-rule:nonzero}
   ]]>
  </style>
 </defs>
 <g id="Capa_x0020_1">
  <metadata id="CorelCorpID_0Corel-Layer"/>
  <path class="fil0" d="M9254 1521l4210 0c79,0 144,65 144,144l0 972c0,79 -65,144 -144,144l-4210 0c-79,0 -144,-65 -144,-144l0 -972c0,-79 65,-144 144,-144z"/>
  <path class="fil1" d="M4516 2788l0 -1758 1218 0 0 268 -917 0 0 500 869 0 0 261 -869 0 0 729 -301 0zm1168 0l624 -1758 407 0 621 1758 -330 0 -494 -1502 -5 0 -493 1502 -330 0zm342 -421l0 -268 970 0 0 268 -970 0zm1534 421l0 -1758 556 0c233,0 407,36 523,106 115,71 173,178 173,321 0,105 -29,193 -88,261 -58,68 -141,113 -247,133l0 5c134,21 234,68 301,142 68,74 101,172 101,294 0,165 -62,289 -187,372 -126,83 -313,124 -564,124l-568 0zm568 -257c154,0 267,-22 338,-65 72,-44 108,-111 108,-203 0,-93 -36,-161 -108,-203 -71,-43 -184,-64 -338,-64l-419 0 0 -251 419 0c133,0 231,-19 292,-57 61,-39 91,-97 91,-176 0,-80 -30,-138 -89,-172 -59,-35 -157,-52 -294,-52l-267 0 0 1243 267 0z"/>
  <path class="fil2" d="M9829 2572l0 -609 88 0 0 82 2 0c21,-28 49,-50 82,-67 33,-18 71,-26 114,-26 43,0 79,8 108,24 29,16 48,39 58,69l3 0c22,-31 50,-54 83,-70 33,-15 72,-23 116,-23 65,0 113,18 142,54 29,37 44,94 44,174l0 392 -90 0 0 -372c0,-60 -10,-103 -29,-130 -19,-27 -50,-40 -93,-40 -49,0 -88,16 -117,48 -30,32 -45,75 -45,128l0 366 -91 0 0 -398c0,-47 -11,-82 -32,-107 -21,-24 -51,-37 -90,-37 -30,0 -58,8 -82,25 -25,16 -44,38 -59,65 -14,27 -22,55 -22,86l0 366 -90 0zm1210 12c-73,0 -126,-20 -160,-60 -34,-40 -51,-102 -51,-186l0 -375 92 0 0 359c0,63 12,109 34,139 23,30 59,45 107,45 37,0 70,-8 99,-23 28,-15 51,-36 67,-62 16,-26 24,-57 24,-91l0 -367 92 0 0 609 -89 0 -1 -82 -2 0c-23,31 -52,54 -88,70 -36,16 -77,24 -124,24zm685 0c-27,0 -54,-2 -82,-5 -28,-4 -55,-9 -80,-15 -26,-7 -48,-15 -68,-23l15 -75c32,11 65,21 101,28 35,8 70,12 104,12 52,0 91,-9 117,-25 27,-16 40,-41 40,-74 0,-21 -6,-38 -17,-51 -12,-13 -29,-24 -52,-32 -23,-9 -53,-18 -88,-26 -42,-11 -80,-23 -114,-37 -34,-14 -60,-33 -79,-56 -20,-23 -29,-53 -29,-89 0,-53 20,-94 61,-122 41,-28 100,-42 178,-42 36,0 74,3 112,9 37,6 71,15 101,27l-17 76c-27,-12 -57,-20 -89,-26 -32,-5 -64,-8 -97,-8 -52,0 -91,8 -117,22 -27,15 -40,37 -40,66 0,20 6,35 17,47 11,12 27,22 49,30 22,9 49,17 83,25 32,7 62,16 90,26 27,10 52,22 73,36 21,14 37,32 50,53 12,21 18,46 18,75 0,36 -10,67 -29,93 -19,26 -47,46 -83,60 -35,14 -78,21 -128,21zm398 -758l0 -108 109 0 0 108 -109 0zm8 746l0 -609 94 0 0 609 -94 0zm578 12c-66,0 -123,-13 -171,-38 -47,-25 -84,-62 -109,-109 -25,-47 -38,-104 -38,-169 0,-66 13,-122 38,-169 25,-48 62,-84 109,-109 48,-26 105,-38 171,-38 33,0 64,3 94,10 30,6 59,17 87,32l-18 75c-26,-13 -53,-23 -78,-29 -26,-7 -52,-10 -79,-10 -72,0 -129,21 -170,63 -40,42 -60,100 -60,175 0,74 20,132 60,174 41,43 98,64 170,64 27,0 53,-4 79,-10 25,-6 52,-16 78,-29l18 75c-28,14 -57,24 -87,31 -30,8 -61,11 -94,11z"/>
  <path class="fil3" d="M1323 757c-78,14 -125,55 -157,112 -30,56 -20,178 -20,252 0,180 0,361 0,541 0,361 0,723 0,1084 0,104 -12,155 39,230 42,61 107,89 184,89 47,0 70,-11 106,-30 70,-39 185,-109 255,-151 55,-33 114,-67 169,-100l1106 -653c91,-53 171,-98 163,-243 -2,-39 -19,-72 -35,-99 -16,-26 -44,-50 -71,-67l-1361 -803c-58,-35 -111,-65 -171,-101 -57,-35 -115,-78 -207,-61z"/>
  <path class="fil4 str0" d="M1915 87c1006,0 1822,816 1822,1822 0,1007 -816,1822 -1822,1822 -1006,0 -1822,-815 -1822,-1822 0,-1006 816,-1822 1822,-1822z"/>
 </g>
</svg>
